<?xml version="1.0" encoding="utf-8"?>
<!-- Generator: Adobe Illustrator 14.0.0, SVG Export Plug-In . SVG Version: 6.00 Build 43363)  -->
<!DOCTYPE svg PUBLIC "-//W3C//DTD SVG 1.1//EN" "http://www.w3.org/Graphics/SVG/1.1/DTD/svg11.dtd">
<svg version="1.1"
	 id="svg2985" xmlns:svg="http://www.w3.org/2000/svg" xmlns:dc="http://purl.org/dc/elements/1.1/" sodipodi:docname="dumload.svg" xmlns:cc="http://creativecommons.org/ns#" inkscape:version="0.48.1 r9760" xmlns:sodipodi="http://sodipodi.sourceforge.net/DTD/sodipodi-0.dtd" xmlns:inkscape="http://www.inkscape.org/namespaces/inkscape" inkscape:export-ydpi="180" inkscape:export-xdpi="180" xmlns:rdf="http://www.w3.org/1999/02/22-rdf-syntax-ns#" inkscape:export-filename="/home/sw/src/dumload_github/dumload.png"
	 xmlns="http://www.w3.org/2000/svg" xmlns:xlink="http://www.w3.org/1999/xlink" x="0px" y="0px" width="72px" height="72px"
	 viewBox="-4 -4 72 72" enable-background="new -4 -4 72 72" xml:space="preserve">
<filter  inkscape:collect="always" id="filter4050">
	<feGaussianBlur  stdDeviation="0.57636364" inkscape:collect="always" id="feGaussianBlur4052"></feGaussianBlur>
</filter>
<filter  inkscape:collect="always" height="1.5462069" width="1.4281081" x="-0.21405406" y="-0.27310343" id="filter3805">
	<feGaussianBlur  stdDeviation="1.5931034" inkscape:collect="always" id="feGaussianBlur3807"></feGaussianBlur>
</filter>
<filter  inkscape:collect="always" height="1.2594595" width="1.2232558" x="-0.1116279" y="-0.12972974" id="filter3779">
	<feGaussianBlur  stdDeviation="0.25712975" inkscape:collect="always" id="feGaussianBlur3781"></feGaussianBlur>
</filter>
<filter  inkscape:collect="always" height="1.2905263" width="1.2044444" x="-0.10222222" y="-0.14526316" id="filter3771">
	<feGaussianBlur  stdDeviation="0.2956992" inkscape:collect="always" id="feGaussianBlur3773"></feGaussianBlur>
</filter>
<g>
	
		<inkscape:perspective  inkscape:vp_x="0 : 32 : 1" inkscape:persp3d-origin="32 : 21.333333 : 1" sodipodi:type="inkscape:persp3d" inkscape:vp_z="64 : 32 : 1" inkscape:vp_y="0 : 1000 : 0" id="perspective3013">
		</inkscape:perspective>
	
		<g id="path3224-9" sodipodi:type="arc" sodipodi:ry="28.818182" sodipodi:rx="28.818182" sodipodi:cy="33.18182" sodipodi:cx="30.454546" opacity="0.8" filter="url(#filter4050)" enable-background="new    ">
		<circle cx="32" cy="32" r="34"/>
		<circle fill="none" stroke="#FFFFFF" stroke-width="2" cx="32" cy="32" r="34"/>
	</g>
	
		<g id="rect4054-6" inkscape:connector-curvature="0" sodipodi:nodetypes="ccccccc" opacity="0.2" filter="url(#filter3805)" enable-background="new    ">
		<polygon fill="#FFFFFF" points="28.323,7.753 39.714,7.753 42.562,5.474 49.396,5.474 49.396,21.992 28.323,21.992 		"/>
	</g>
	<path id="rect4054" inkscape:connector-curvature="0" sodipodi:nodetypes="ccccccc" fill="#E2B700" d="M27.982,7.323h11.392
		l2.849-2.279h6.834v16.518H27.982V7.323z"/>
	<g id="path2991" inkscape:connector-curvature="0" filter="url(#filter3771)">
		<polygon fill="#FFE680" points="29.063,12.418 28.911,20.154 34.676,20.609 30.277,18.789 		"/>
	</g>
	
		<path id="path4059" inkscape:connector-curvature="0" sodipodi:nodetypes="cccccccc" opacity="0.9" fill="#FFED9F" enable-background="new    " d="
		M23.2,59.276c-19.122-13.451,7.835-7.206,17.326-5.293C24.521,50.259-3.384,36.972,14.991,24.346l3.061,5.295l8.971-14.381
		l-16.764,1.318l3.079,5.304C-1.564,26.78,0.958,52.442,23.2,59.276z"/>
	<path id="path3224" inkscape:connector-curvature="0" opacity="0.3" enable-background="new    " d="M62.79,20.634
		C39.976,22.26,16.673,31.479,0.542,40.888C4.785,55.762,17.52,64.714,32.585,64.714c18.411,0,32.372-15.54,32.249-33.524
		C64.808,27.494,63.883,23.966,62.79,20.634z"/>
	
		<text transform="matrix(1 0 0 1 21.0557 43.3135)" fill="#FFE680" font-family="'CMUSansSerif-Bold'" font-size="22.0439" letter-spacing="-1">SCP</text>
	<g id="path2993" inkscape:connector-curvature="0" sodipodi:nodetypes="ccccc" filter="url(#filter3779)">
		<polygon fill="#FFF4C7" points="42.937,6.144 48.246,5.992 48.013,12.514 47.184,7.509 		"/>
	</g>
</g>
</svg>
